<?xml version="1.0" standalone="no"?>
<!DOCTYPE svg PUBLIC "-//W3C//DTD SVG 20010904//EN"
 "http://www.w3.org/TR/2001/REC-SVG-20010904/DTD/svg10.dtd">
<svg version="1.0" xmlns="http://www.w3.org/2000/svg"
 width="513.000000pt" height="513.000000pt" viewBox="0 0 513.000000 513.000000"
 preserveAspectRatio="xMidYMid meet">
<metadata>
Created by potrace 1.14, written by Peter Selinger 2001-2017
</metadata>
<g transform="translate(0.000000,513.000000) scale(0.100000,-0.100000)"
fill="#000000" stroke="none">
<path d="M2471 5099 c-87 -38 -131 -89 -186 -219 -31 -72 -77 -222 -89 -290
-2 -14 -5 -26 -5 -28 -1 -2 -38 29 -82 68 -101 89 -219 167 -267 177 -63 13
-135 7 -183 -14 -86 -38 -156 -136 -163 -227 -5 -58 12 -190 36 -279 11 -43
18 -80 15 -83 -3 -4 -34 1 -69 10 -270 67 -437 27 -510 -122 -33 -67 -32 -190
2 -247 41 -68 101 -146 166 -214 l62 -65 -97 -32 c-258 -84 -357 -178 -355
-334 1 -114 60 -202 172 -259 58 -29 233 -91 264 -94 10 -1 18 -3 18 -5 0 -2
-31 -38 -68 -80 -96 -110 -156 -201 -168 -255 -41 -188 82 -347 268 -348 77 0
197 17 292 42 21 6 39 9 41 7 2 -2 -5 -39 -16 -83 -17 -73 -26 -133 -33 -225
-9 -116 60 -233 166 -280 126 -55 239 -17 419 142 85 75 101 87 97 71 -4 -15
24 -126 52 -206 43 -125 77 -191 125 -245 l45 -50 0 -242 0 -242 -39 49 c-92
115 -197 200 -317 254 -69 32 -173 59 -202 54 -9 -2 -22 -4 -28 -4 -6 -1 -21
-10 -34 -21 -19 -16 -23 -30 -22 -72 1 -165 154 -407 332 -528 100 -68 226
-122 303 -129 4 -1 7 -74 7 -163 0 -141 3 -167 20 -203 26 -54 85 -89 138 -81
20 3 42 5 47 6 20 1 72 56 83 89 7 20 12 97 12 192 0 99 4 159 10 160 6 1 13
2 18 3 4 1 23 6 42 10 151 36 336 170 446 321 71 98 141 283 129 342 -14 73
-58 91 -166 66 -164 -36 -339 -157 -454 -314 l-25 -33 0 243 0 243 40 39 c22
22 55 70 74 107 38 75 93 236 103 297 10 68 14 68 83 4 98 -92 202 -160 270
-176 31 -8 113 -4 148 8 79 25 160 116 178 199 13 63 4 196 -21 297 -3 13 -7
32 -10 44 -2 11 -7 29 -10 40 -8 23 -3 23 72 4 102 -25 116 -27 226 -31 99 -3
113 -1 156 20 141 72 194 227 128 371 -15 33 -31 62 -35 65 -4 3 -20 24 -35
47 -16 23 -55 70 -88 105 -32 35 -59 66 -59 69 0 4 18 9 40 13 56 9 241 82
288 114 144 97 170 275 61 413 -37 47 -162 112 -295 155 l-92 28 75 81 c141
152 190 250 178 359 -10 93 -65 170 -152 213 -51 25 -67 27 -153 26 -53 -1
-139 -10 -194 -22 -55 -12 -101 -19 -103 -17 -2 2 5 39 16 82 47 187 46 320
-4 399 -65 102 -175 149 -293 124 -63 -13 -193 -96 -292 -187 l-65 -60 -12 51
c-7 29 -15 64 -18 79 -20 103 -114 306 -161 347 -86 76 -202 100 -293 60z
m279 -954 c184 -35 366 -133 504 -270 373 -374 375 -983 5 -1354 -137 -136
-279 -216 -479 -267 -70 -18 -256 -24 -350 -12 -355 48 -679 328 -778 673 -36
126 -42 168 -38 310 4 158 28 258 92 392 66 137 198 291 315 367 24 16 56 37
70 46 62 43 205 95 314 115 70 13 277 13 345 0z"/>
<path d="M2452 3849 c-243 -43 -446 -230 -516 -472 -93 -323 81 -679 386 -794
107 -41 135 -46 233 -49 382 -8 689 298 680 678 -4 175 -66 319 -190 444 -130
131 -266 192 -445 199 -52 2 -119 0 -148 -6z"/>
</g>
</svg>
